<svg xmlns="http://www.w3.org/2000/svg" width="500" height="500" style="width:100%;height:100%;transform:translate3d(0,0,0)" viewBox="0 0 500 500"><defs><clipPath id="c"><path d="M0 0h500v500H0z"/></clipPath><clipPath id="b"><path d="M0 0h500v500H0z"/></clipPath><filter id="e" width="300%" height="300%" x="-100%" y="-100%"><feGaussianBlur result="filter_result_0" stdDeviation="52.5 52.5"/></filter><mask id="d" mask-type="alpha"><use xmlns:a0="http://www.w3.org/1999/xlink" a0:href="#a"/></mask><g id="a" fill-opacity="0" stroke="#121331" stroke-linecap="round" stroke-linejoin="round" stroke-width="4.55" clip-path="url(#b)" style="display:block"><path d="M20.8-37.791c16.196 16.196 16.196 42.456 0 58.652-16.196 16.196-42.457 16.196-58.653 0-16.196-16.196-16.196-42.456 0-58.652 16.196-16.196 42.457-16.196 58.653 0z" style="display:block" transform="matrix(3.5 0 0 3.5 249.999 250)"/><path d="M-39.647-21.188a33.168 33.168 0 0 1 7.333-11.065 33.149 33.149 0 0 1 13.465-8.196m40.335 61.876 25.156 24.725" style="display:block" transform="matrix(3.5 0 0 3.5 249.999 250)"/></g></defs><g clip-path="url(#c)"><g mask="url(#d)" style="display:block"><g filter="url(#e)" transform="rotate(-94 262.075 8.435) scale(2.4)"><path fill="#C6156E" d="M0-250c137.975 0 250 112.025 250 250S137.975 250 0 250-250 137.975-250 0-137.975-250 0-250z" class="design"/><path fill="#E88B2F" d="M113.242-295.384c97.478 0 176.5 79.022 176.5 176.5s-79.022 176.5-176.5 176.5c-43.948 0-74.396-34.057-105.29-60.631-37.631-32.369-71.21-62.338-71.21-115.869 0-97.478 79.022-176.5 176.5-176.5z" class="design"/></g></g><path style="display:none"/></g></svg>